<?xml version="1.0" encoding="iso-8859-1"?>
<!-- Generator: Adobe Illustrator 16.0.0, SVG Export Plug-In . SVG Version: 6.00 Build 0)  -->
<!DOCTYPE svg PUBLIC "-//W3C//DTD SVG 1.1//EN" "http://www.w3.org/Graphics/SVG/1.1/DTD/svg11.dtd">
<svg version="1.1" id="Capa_1" xmlns="http://www.w3.org/2000/svg" xmlns:xlink="http://www.w3.org/1999/xlink" x="0px" y="0px"
	 width="187.255px" height="187.255px" viewBox="0 0 187.255 187.255" style="enable-background:new 0 0 187.255 187.255;"
	 xml:space="preserve">
<g>
	<path d="M78.898,21.306c-8.021,5.366-13.453,16.247-16.452,24.957c-5.849,16.99-3.756,35.353,6.32,49.993
		c-16.785,9.169-31.86,25.25-44.442,38.244c-9.693,10.012-31.373,31.637-22.043,47.942c13.194,23.059,68.812-47.397,84.009-68.915
		c29.447,20.374,69.513,14.943,92.115-16.451C217.944,42.157,114.241-38.398,78.898,21.306z M7.718,169.445
		c0.58-3.277,1.872-6.547,3.664-9.763c-0.252,1.077-0.46,2.172-0.611,3.289C9.575,165.056,8.554,167.222,7.718,169.445z
		 M10.994,179.373c1.265-0.708,2.476-1.466,3.65-2.256c0.383,0.479,0.896,0.834,1.48,1.023
		C14.165,179.055,12.414,179.521,10.994,179.373z M90.341,109.367c-0.286-0.189-0.578-0.37-0.862-0.562
		c0.133-0.215,0.252-0.412,0.345-0.576c0.365-0.64,0.479-1.263,0.427-1.838c0.422,0.35,0.82,0.725,1.252,1.062
		C90.934,107.979,90.537,108.652,90.341,109.367z M114.948,118.395c0.3-0.293,0.545-0.619,0.727-0.986
		c2.45,0.545,4.936,0.953,7.445,1.256c0.197,0.192,0.442,0.333,0.687,0.47C120.84,119.081,117.879,118.828,114.948,118.395z
		 M138.166,105.146c-45.176,15.298-70.664-60.069-29.54-75.131c0.753,0.237,1.6,0.246,2.479-0.128
		C161.399,8.455,186.69,88.716,138.166,105.146z"/>
</g>
<g>
</g>
<g>
</g>
<g>
</g>
<g>
</g>
<g>
</g>
<g>
</g>
<g>
</g>
<g>
</g>
<g>
</g>
<g>
</g>
<g>
</g>
<g>
</g>
<g>
</g>
<g>
</g>
<g>
</g>
</svg>
